<svg version="1.2" baseProfile="tiny" id="EdgeSVG_RIy8Y" x="0px" y="0px" width="220px" height="226px" viewBox="0 0 220 226" xmlns:xlink="http://www.w3.org/1999/xlink" xmlns="http://www.w3.org/2000/svg">
  <path fill="#808184" d="M210.01,0H9.989C4.481,0,0,4.495,0,10.021v112.167c0,5.525,6.426,8.702,9.989,10.021l16.416,7.104&#xD;&#xA;&#x9;&#x9;c-0.03,0.919-0.07,1.836-0.07,2.762C26.335,188.425,63.793,226,110,226c46.206,0,83.664-37.575,83.664-83.926&#xD;&#xA;&#x9;&#x9;c0-0.854-0.039-1.696-0.064-2.544l16.411-7.321c5.144-2.114,9.989-4.495,9.989-10.021V10.021C220,4.495,215.518,0,210.01,0z"/>
</svg>