<svg version="1.2" baseProfile="tiny" viewBox="0 0 35.295 45.006" xmlns:xlink="http://www.w3.org/1999/xlink" xmlns="http://www.w3.org/2000/svg">
<path style="fill:#ffffff;" d="M33.9781,39.847C33.9781,39.847,33.2391,43.3948,28.8431,44.172C26.6191,44.5672,24.0151,43.997,22.2899,41.6179C22.1278,41.3961,22.2249,41.1328,22.4,40.964C22.5789,40.7948,23.4511,39.883,23.4511,39.883C24.7369,41.8718,30.9258,42.911,33.9781,39.847M6.8959,9.278C12.0098,7.9242,23.9339,9.2591,23.438,5.925C22.9961,2.9618,10.1459,4.055,4.7391,4.704C3.574,4.8449,2.1389,5.1721,1.301,3.7612C0.767,4.146,0.581,4.6581,0.834,5.2229C1.1361,5.898,2.8391,9.571,3.1921,10.2519C3.7381,11.3051,4.6092,11.1759,4.6092,11.1759C4.5312,10.0309,5.6959,9.5962,6.8959,9.278M14.3051,12.7479C16.7598,14.113,16.2269,18.8701,16.1369,19.3382C16.0469,19.8058,16.1761,20.079,16.7221,20.39C17.267,20.7032,17.7301,20.665,17.7301,20.665C17.7301,20.665,18.7589,20.061,19.2951,19.61C21.4678,17.7832,18.7769,12.7439,14.3051,12.7479Z"/>
</svg>