<svg version="1.2" baseProfile="tiny" id="EdgeSVG_AfqfH" x="0px" y="0px" width="35.295px" height="45.006px" viewBox="0 0 35.295 45.006" xmlns:xlink="http://www.w3.org/1999/xlink" xmlns="http://www.w3.org/2000/svg">
  <linearGradient id="SVGID_2_" gradientUnits="userSpaceOnUse" x1="25.354" y1="37.9985" x2="31.1186" y2="43.7631">
    <stop offset="0.0364" style="stop-color:#FFFFFF;stop-opacity:0.25"/>
    <stop offset="0.0478" style="stop-color:#D2D1D2;stop-opacity:0.2467"/>
    <stop offset="0.0602" style="stop-color:#A9A8A8;stop-opacity:0.2432"/>
    <stop offset="0.0737" style="stop-color:#858383;stop-opacity:0.2394"/>
    <stop offset="0.0881" style="stop-color:#676464;stop-opacity:0.2353"/>
    <stop offset="0.1038" style="stop-color:#4E4B4B;stop-opacity:0.2308"/>
    <stop offset="0.1212" style="stop-color:#3B3738;stop-opacity:0.2259"/>
    <stop offset="0.1412" style="stop-color:#2D292A;stop-opacity:0.2202"/>
    <stop offset="0.1663" style="stop-color:#252122;stop-opacity:0.213"/>
    <stop offset="0.2121" style="stop-color:#231F20;stop-opacity:0.2"/>
  </linearGradient>
  <path fill="url(#SVGID_2_)" d="M23.467,39.883c0,0-0.873,0.912-1.051,1.081c-0.177,0.169-0.273,0.433-0.11,0.654&#xD;&#xA;&#x9;&#x9;c1.725,2.379,4.329,2.948,6.553,2.554c4.396-0.777,5.135-4.325,5.135-4.325C30.942,42.911,24.752,41.872,23.467,39.883z"/>
  <linearGradient id="SVGID_3_" gradientUnits="userSpaceOnUse" x1="26.439" y1="38.3276" x2="30.296" y2="43.8361">
    <stop offset="0.0364" style="stop-color:#FFFFFF;stop-opacity:0.1"/>
    <stop offset="0.0714" style="stop-color:#D2D1D2;stop-opacity:0.1065"/>
    <stop offset="0.1095" style="stop-color:#A9A8A8;stop-opacity:0.1136"/>
    <stop offset="0.1509" style="stop-color:#858383;stop-opacity:0.1212"/>
    <stop offset="0.1952" style="stop-color:#676464;stop-opacity:0.1295"/>
    <stop offset="0.2434" style="stop-color:#4E4B4B;stop-opacity:0.1384"/>
    <stop offset="0.2967" style="stop-color:#3B3738;stop-opacity:0.1483"/>
    <stop offset="0.3582" style="stop-color:#2D292A;stop-opacity:0.1597"/>
    <stop offset="0.4351" style="stop-color:#252122;stop-opacity:0.1739"/>
    <stop offset="0.5758" style="stop-color:#231F20;stop-opacity:0.2"/>
  </linearGradient>
  <path fill="url(#SVGID_3_)" d="M32.818,40.75c-1.419,2.04-3.303,2.606-4.574,2.703c-2.33,0.185-4.332-1.131-5.283-2.319&#xD;&#xA;&#x9;&#x9;c-0.112-0.139-0.316-0.162-0.458-0.051c-0.14,0.113-0.162,0.317-0.051,0.457c0.986,1.23,2.737,2.59,5.112,2.59&#xD;&#xA;&#x9;&#x9;c0.171,0,0.341-0.006,0.514-0.019c1.55-0.118,3.838-0.599,5.454-3.393c0.074-0.129,0.311-0.727,0.311-0.727&#xD;&#xA;&#x9;&#x9;C33.526,40.263,33.094,40.588,32.818,40.75z"/>
  <linearGradient id="SVGID_4_" gradientUnits="userSpaceOnUse" x1="22.229" y1="43.0659" x2="14.686" y2="0.2874">
    <stop offset="0.297" style="stop-color:#231F20;stop-opacity:0"/>
    <stop offset="0.7445" style="stop-color:#231F20;stop-opacity:0.3005"/>
    <stop offset="0.8182" style="stop-color:#231F20;stop-opacity:0.35"/>
    <stop offset="0.8198" style="stop-color:#292526;stop-opacity:0.3489"/>
    <stop offset="0.8347" style="stop-color:#5B5858;stop-opacity:0.3386"/>
    <stop offset="0.8504" style="stop-color:#878485;stop-opacity:0.3279"/>
    <stop offset="0.8665" style="stop-color:#ACAAAB;stop-opacity:0.3168"/>
    <stop offset="0.8831" style="stop-color:#CAC9C9;stop-opacity:0.3054"/>
    <stop offset="0.9004" style="stop-color:#E1E1E1;stop-opacity:0.2935"/>
    <stop offset="0.9187" style="stop-color:#F2F2F2;stop-opacity:0.2809"/>
    <stop offset="0.9387" style="stop-color:#FCFCFC;stop-opacity:0.2671"/>
    <stop offset="0.9636" style="stop-color:#FFFFFF;stop-opacity:0.25"/>
  </linearGradient>
  <path fill="url(#SVGID_4_)" d="M31.381,24.642c-2.106-7.566-4.312-9.457-3.977-11.856c0.476-3.435,2.338-3.274,2.338-6.471&#xD;&#xA;&#x9;&#x9;c-0.503,0-0.503,0-0.503,0V5.925h0.503C29.585,4.14,28.401,2.5,26.203,1.98c-8.24-1.95-15.466-1.67-24.763,1.07&#xD;&#xA;&#x9;&#x9;c-0.544,0.161-0.139,0.71-0.139,0.71c0.838,1.411,2.272,1.083,3.438,0.943c5.406-0.649,18.257-1.742,18.699,1.221&#xD;&#xA;&#x9;&#x9;c0.496,3.334-11.428,2-16.542,3.353c-1.2,0.318-2.365,0.753-2.286,1.898c0,0,0.003,0.485,0.493,0.539&#xD;&#xA;&#x9;&#x9;c1.715,0.188,6.729,0.002,7.291,0.175c0.507,0.156,0.903,0.379,1.021,0.532c0.15,0.195,0.461,0.326,0.617,0.326&#xD;&#xA;&#x9;&#x9;c0.155,0,0.273,0,0.273,0c4.472-0.004,7.163,5.035,4.99,6.862c-0.536,0.451-1.565,1.055-1.565,1.055s0.011,0.115-0.033,0.368&#xD;&#xA;&#x9;&#x9;c-0.046,0.253,0.259,0.571,0.527,0.565c0.367-0.007,1.228-0.039,1.715,1.755c1.106,4.075,5.438,10.645,5.518,12.127&#xD;&#xA;&#x9;&#x9;c0.063,1.225-1.551,3.06-2.112,3.659c-0.117,0.127-0.143,0.28-0.07,0.409c0.072,0.127,0.193,0.335,0.193,0.335&#xD;&#xA;&#x9;&#x9;c1.285,1.988,7.475,3.027,10.526-0.036c0,0,0.059-0.041,0.292-0.273c0.254-0.256,0.295-0.563,0.29-0.701&#xD;&#xA;&#x9;&#x9;C34.471,35.922,33.031,30.569,31.381,24.642z"/>
  <linearGradient id="SVGID_5_" gradientUnits="userSpaceOnUse" x1="21.1216" y1="1.0698" x2="3.0162" y2="9.9004">
    <stop offset="0.9394" style="stop-color:#231F20;stop-opacity:0"/>
    <stop offset="1" style="stop-color:#231F20;stop-opacity:0.3"/>
  </linearGradient>
  <path fill="url(#SVGID_5_)" d="M6.894,9.278c5.114-1.354,17.038-0.019,16.542-3.353c-0.443-2.963-13.293-1.87-18.699-1.221&#xD;&#xA;&#x9;&#x9;c-1.165,0.141-2.6,0.468-3.438-0.943C0.765,4.146,0.579,4.658,0.833,5.223c0.302,0.675,2.005,4.348,2.358,5.029&#xD;&#xA;&#x9;&#x9;c0.546,1.053,1.417,0.924,1.417,0.924C4.529,10.031,5.694,9.596,6.894,9.278z"/>
  <linearGradient id="SVGID_6_" gradientUnits="userSpaceOnUse" x1="11.7954" y1="2.6577" x2="12.6024" y2="10.3361">
    <stop offset="0.1273" style="stop-color:#FFFFFF;stop-opacity:0.15"/>
    <stop offset="0.9879" style="stop-color:#231F20;stop-opacity:0.07"/>
  </linearGradient>
  <path fill="url(#SVGID_6_)" d="M6.894,9.278c5.114-1.354,17.038-0.019,16.542-3.353c-0.443-2.963-13.293-1.87-18.699-1.221&#xD;&#xA;&#x9;&#x9;c-1.165,0.141-2.6,0.468-3.438-0.943C0.765,4.146,0.579,4.658,0.833,5.223c0.302,0.675,2.005,4.348,2.358,5.029&#xD;&#xA;&#x9;&#x9;c0.546,1.053,1.417,0.924,1.417,0.924C4.529,10.031,5.694,9.596,6.894,9.278z"/>
  <linearGradient id="SVGID_7_" gradientUnits="userSpaceOnUse" x1="19.6333" y1="28.8892" x2="25.5569" y2="27.4122">
    <stop offset="0.2424" style="stop-color:#231F20;stop-opacity:0.3"/>
    <stop offset="1" style="stop-color:#231F20;stop-opacity:0"/>
  </linearGradient>
  <path fill="url(#SVGID_7_)" d="M26.434,30.955c-0.777-2.69-2.292-6.667-3.755-9.216c-0.939-1.636-3.837-1.104-4.959-0.522&#xD;&#xA;&#x9;&#x9;c0.074,0.201,0.298,0.386,0.504,0.381c0.367-0.007,1.228-0.039,1.715,1.755c1.106,4.075,5.438,10.645,5.518,12.127&#xD;&#xA;&#x9;&#x9;c0.002,0.072-0.016,0.152-0.023,0.229C26.455,34.791,27.133,33.381,26.434,30.955z"/>
  <linearGradient id="SVGID_8_" gradientUnits="userSpaceOnUse" x1="17.7852" y1="14.8345" x2="14.6789" y2="16.3495">
    <stop offset="0" style="stop-color:#FFFFFF;stop-opacity:0.52"/>
    <stop offset="0" style="stop-color:#FFFFFF;stop-opacity:0.2"/>
    <stop offset="1" style="stop-color:#231F20;stop-opacity:0.19"/>
  </linearGradient>
  <path fill="url(#SVGID_8_)" d="M16.136,19.337c1.123-0.266,2.012-1.156,2.232-1.718c0.824-2.107-2.031-4.201-4.063-4.872&#xD;&#xA;&#x9;&#x9;C16.76,14.113,16.227,18.869,16.136,19.337z"/>
  <linearGradient id="SVGID_9_" gradientUnits="userSpaceOnUse" x1="17.5103" y1="14.9478" x2="17.0651" y2="6.4536">
    <stop offset="0.0727" style="stop-color:#231F20;stop-opacity:0"/>
    <stop offset="0.6424" style="stop-color:#231F20;stop-opacity:0.22"/>
  </linearGradient>
  <path fill="url(#SVGID_9_)" d="M29.751,6.316c-0.502,0-0.502,0-0.502,0V6.12h-5.818c-0.023,3.072-11.52,1.833-16.525,3.158&#xD;&#xA;&#x9;&#x9;c-1.2,0.318-2.365,0.753-2.287,1.898c0,0,0.003,0.485,0.493,0.539c1.716,0.188,6.729,0.002,7.292,0.175&#xD;&#xA;&#x9;&#x9;c0.506,0.156,0.903,0.379,1.021,0.532c0.149,0.195,0.461,0.326,0.617,0.326c0.154,0,0.272,0,0.272,0&#xD;&#xA;&#x9;&#x9;c1.668-0.001,3.088,0.699,4.102,1.673h9.139c-0.175-0.693-0.168-1.328-0.102-1.876C27.8,9.619,29.751,9.512,29.751,6.316z"/>
  <linearGradient id="SVGID_10_" gradientUnits="userSpaceOnUse" x1="14.4468" y1="10.0674" x2="12.8548" y2="1.0387">
    <stop offset="0" style="stop-color:#FFFFFF;stop-opacity:0.35"/>
    <stop offset="1" style="stop-color:#231F20;stop-opacity:0.35"/>
  </linearGradient>
  <path fill="url(#SVGID_10_)" d="M7.067,9.705c5.964-1.518,18.999,0.284,18.729-3.944C25.525,1.533,5.305,4.094,3.598,4.338&#xD;&#xA;&#x9;&#x9;C1.89,4.583,1.88,3.761,1.44,3.051c-0.544,0.161-0.139,0.71-0.139,0.71c0.838,1.411,2.272,1.083,3.438,0.943&#xD;&#xA;&#x9;&#x9;c5.406-0.649,18.257-1.742,18.699,1.221c0.496,3.334-11.428,2-16.542,3.353c-1.2,0.318-2.365,0.753-2.286,1.898&#xD;&#xA;&#x9;&#x9;c0,0,0.003,0.485,0.493,0.539C5.036,10.635,5.301,10.154,7.067,9.705z"/>
  <linearGradient id="SVGID_11_" gradientUnits="userSpaceOnUse" x1="26.3472" y1="6.3154" x2="26.3472" y2="5.9248">
    <stop offset="0.0121" style="stop-color:#000000;stop-opacity:0.3"/>
    <stop offset="1" style="stop-color:#000000;stop-opacity:0.52"/>
  </linearGradient>
  <rect x="23.454" y="5.925" fill="url(#SVGID_11_)" width="5.786" height="0.391"/>
  <radialGradient id="SVGID_12_" cx="28.7241" cy="32.7173" r="8.8106" gradientUnits="userSpaceOnUse">
    <stop offset="0.6" style="stop-color:#231F20;stop-opacity:0"/>
    <stop offset="0.9435" style="stop-color:#231F20;stop-opacity:0.3005"/>
    <stop offset="1" style="stop-color:#231F20;stop-opacity:0.35"/>
  </radialGradient>
  <path fill="url(#SVGID_12_)" d="M24.511,33.123c0.543,1.082,0.922,1.934,0.945,2.357c0.063,1.225-1.551,3.06-2.112,3.659&#xD;&#xA;&#x9;&#x9;c-0.117,0.127-0.143,0.28-0.07,0.409c0.072,0.127,0.193,0.335,0.193,0.335c1.285,1.988,7.475,3.027,10.526-0.036&#xD;&#xA;&#x9;&#x9;c0,0,0.059-0.041,0.292-0.273c0.254-0.256,0.295-0.563,0.29-0.701c-0.051-1.423-0.417-3.414-0.961-5.75H24.511z"/>
  <linearGradient id="SVGID_13_" gradientUnits="userSpaceOnUse" x1="34.2524" y1="21.856" x2="25.8447" y2="24.2986">
    <stop offset="0.4" style="stop-color:#231F20;stop-opacity:0.27"/>
    <stop offset="0.8788" style="stop-color:#231F20;stop-opacity:0"/>
  </linearGradient>
  <path fill="url(#SVGID_13_)" d="M34.548,38.625c-0.01-0.3-0.04-0.61-0.08-0.95s-0.1-0.729-0.17-1.12&#xD;&#xA;&#x9;&#x9;c-0.01-0.08-0.02-0.149-0.029-0.24c-0.08-0.46-0.181-0.949-0.28-1.46c0-0.02-0.01-0.04-0.01-0.06c-0.101-0.47-0.21-0.96-0.33-1.46&#xD;&#xA;&#x9;&#x9;c-0.011-0.08-0.03-0.15-0.04-0.22h-0.01c-0.58-2.511-1.37-5.41-2.23-8.48c-1.63-5.85-3.31-8.3-3.83-10.22&#xD;&#xA;&#x9;&#x9;c-0.1-0.36-0.13-0.8-0.13-1.22c0-0.23,0.01-0.46,0.03-0.66c0.02-0.13,0.04-0.25,0.06-0.37c0.15-0.7,0.352-1.225,0.601-1.67&#xD;&#xA;&#x9;&#x9;c0.688-1.229,1.636-1.959,1.639-4.18h-0.497H23.43c-0.13,0.76-1.024,1.233-2.362,1.542l10.34,33.51&#xD;&#xA;&#x9;&#x9;c0.745-0.237,1.737-0.667,2.587-1.52c0,0,0.059-0.041,0.292-0.273c0.254-0.256,0.295-0.564,0.29-0.701&#xD;&#xA;&#x9;&#x9;c-0.003-0.075-0.016-0.169-0.021-0.247H34.548z"/>
</svg>