<svg version="1.2" baseProfile="tiny" id="EdgeSVG_AfqfH" x="0px" y="0px" width="35.295px" height="45.006px" viewBox="0 0 35.295 45.006" xmlns:xlink="http://www.w3.org/1999/xlink" xmlns="http://www.w3.org/2000/svg">
  <linearGradient id="SVGID_1_" gradientUnits="userSpaceOnUse" x1="0" y1="22.5034" x2="35.2954" y2="22.5034">
    <stop offset="0" style="stop-color:#231F20;stop-opacity:0.5"/>
    <stop offset="0.8788" style="stop-color:#231F20;stop-opacity:0.5"/>
  </linearGradient>
  <path fill="url(#SVGID_1_)" d="M27.556,45.006c-0.152,0-0.306-0.004-0.459-0.013c-2.188-0.127-4.103-1.175-5.391-2.952&#xD;&#xA;&#x9;&#x9;c-0.356-0.489-0.276-1.146,0.196-1.598c0.1-0.095,0.418-0.425,0.674-0.69c-0.138-0.373-0.052-0.79,0.237-1.104&#xD;&#xA;&#x9;&#x9;c0.83-0.887,1.824-2.205,1.901-3.011l0.014-0.109c0.008-0.011,0.004-0.072-0.042-0.227c-0.063-0.187-0.107-0.315-0.168-0.462&#xD;&#xA;&#x9;&#x9;c-0.104-0.246-0.188-0.434-0.283-0.638c-0.116-0.248-0.232-0.484-0.356-0.731c-0.313-0.622-0.684-1.323-1.078-2.07&#xD;&#xA;&#x9;&#x9;c-1.305-2.47-2.929-5.544-3.559-7.86c-0.332-1.225-0.753-1.225-0.933-1.225c-0.004,0-0.007,0-0.011,0&#xD;&#xA;&#x9;&#x9;c-0.249,0-0.41-0.039-0.569-0.115l-0.114-0.063c-0.08-0.047-0.159-0.106-0.235-0.178l-0.094-0.095&#xD;&#xA;&#x9;&#x9;c-0.076-0.091-0.122-0.162-0.164-0.238l-0.071-0.138c-0.026-0.072-0.046-0.142-0.059-0.208c-0.192-0.056-0.407-0.14-0.631-0.268&#xD;&#xA;&#x9;&#x9;c-0.495-0.282-1.134-0.778-0.935-1.813c0.113-0.578,0.427-4.541-1.327-5.734H14.04c-0.359,0-0.895-0.213-1.197-0.607&#xD;&#xA;&#x9;&#x9;c-0.025-0.016-0.275-0.163-0.661-0.282c-0.246-0.05-1.721-0.05-2.43-0.05l-1.146,0.001c-1.31-0.001-2.774-0.01-3.582-0.098&#xD;&#xA;&#x9;&#x9;c-0.439-0.048-0.756-0.283-0.941-0.583c-0.446-0.104-1.085-0.407-1.529-1.264C2.186,9.875,0.451,6.133,0.176,5.517&#xD;&#xA;&#x9;&#x9;c-0.311-0.694-0.205-1.394,0.275-1.951C0.424,3.405,0.427,3.225,0.489,3.04C0.553,2.85,0.734,2.508,1.235,2.36&#xD;&#xA;&#x9;&#x9;C6.698,0.75,11.372,0,15.943,0c3.376,0,6.786,0.419,10.425,1.28c2.231,0.527,3.767,2.168,4.062,4.315l0.034,1.05&#xD;&#xA;&#x9;&#x9;c-0.07,1.717-0.694,2.64-1.248,3.459c-0.164,0.242-0.33,0.486-0.481,0.756c-0.235,0.446-0.403,0.917-0.52,1.465&#xD;&#xA;&#x9;&#x9;c-0.02,0.114-0.037,0.206-0.049,0.306c-0.054,0.45-0.05,1.12,0.081,1.601l0.074,0.27c0.191,0.589,0.496,1.268,0.867,2.096&#xD;&#xA;&#x9;&#x9;c0.777,1.73,1.842,4.099,2.886,7.851c0.798,2.867,1.628,5.886,2.24,8.51l0.035,0.156c0.132,0.571,0.243,1.069,0.341,1.539&#xD;&#xA;&#x9;&#x9;c0.12,0.588,0.218,1.087,0.297,1.556l0.024,0.163c0.077,0.479,0.14,0.874,0.182,1.232c0.054,0.448,0.088,0.864,0.102,1.242&#xD;&#xA;&#x9;&#x9;c0.006,0.165-0.013,0.744-0.499,1.233c-0.063,0.063-0.117,0.116-0.162,0.159c-0.268,0.893-1.47,3.901-5.65,4.641&#xD;&#xA;&#x9;&#x9;C28.516,44.964,28.036,45.006,27.556,45.006z"/>
</svg>