<svg version="1.2" baseProfile="tiny" viewBox="0 0 35.295 45.006" xmlns:xlink="http://www.w3.org/1999/xlink" xmlns="http://www.w3.org/2000/svg">
<path style="fill:#ffffff;" d="M34.4779,37.6889C34.437,37.341,34.3759,36.9571,34.312,36.566C34.299,36.4841,34.2909,36.4139,34.2771,36.3302C34.1991,35.8689,34.1031,35.3792,33.9979,34.8689C33.994,34.8459,33.9901,34.8238,33.9848,34.8009C33.8881,34.336,33.778,33.8441,33.6619,33.3418C33.645,33.268,33.6319,33.1991,33.6139,33.1231L33.6128,33.1231C33.028,30.6171,32.2339,27.7111,31.3811,24.643C29.754,18.7999,28.0729,16.3439,27.5449,14.4222L27.553,14.4222C27.3992,13.8551,27.3861,13.094,27.451,12.5459C27.4669,12.4158,27.4892,12.297,27.511,12.1782C27.6579,11.4788,27.871,10.954,28.1072,10.5089C28.799,9.2771,29.7519,8.5498,29.7519,6.317C29.748,6.317,29.747,6.317,29.7431,6.317C29.3679,6.317,29.273,6.317,29.249,6.317L29.249,6.1199L29.2401,6.1199L29.2401,5.925L29.7431,5.925C29.5839,4.1401,28.4001,2.5001,26.2019,1.9798C17.962,0.0302,10.7371,0.3101,1.439,3.0501C0.8961,3.2112,1.301,3.7598,1.301,3.7598C0.7659,4.146,0.5799,4.6581,0.833,5.2229C1.1351,5.898,2.8381,9.571,3.191,10.2519C3.737,11.3051,4.6081,11.1759,4.6081,11.1759C4.6081,11.1759,4.6109,11.6611,5.1008,11.7151C5.853,11.7979,7.2379,11.8082,8.6039,11.8091C8.9932,11.8091,9.3789,11.8082,9.7499,11.8082C11.0502,11.8082,12.1461,11.815,12.3921,11.891C12.8979,12.0472,13.2949,12.27,13.4132,12.423C13.5632,12.6179,13.8741,12.7488,14.0301,12.7488C14.0329,12.7488,14.0351,12.7488,14.0389,12.7488C14.1889,12.7488,14.3029,12.7488,14.3029,12.7488C16.7581,14.1139,16.2262,18.871,16.1341,19.3391C16.044,19.8058,16.1729,20.079,16.7199,20.3909C17.2649,20.7041,17.728,20.6659,17.728,20.6659C17.728,20.6659,17.74,20.7811,17.6951,21.034C17.6839,21.0939,17.6959,21.156,17.7181,21.2181L17.7181,21.2181L17.7181,21.219C17.7269,21.2401,17.741,21.2599,17.753,21.282C17.7739,21.3189,17.795,21.354,17.8229,21.3882C17.8399,21.4071,17.8561,21.422,17.8752,21.44C17.9101,21.4728,17.9461,21.5012,17.986,21.5241C18.004,21.5349,18.0192,21.5448,18.0379,21.5529C18.0979,21.5808,18.16,21.6011,18.2221,21.5988C18.5892,21.593,19.45,21.561,19.9371,23.3541C20.7291,26.27,23.1659,30.456,24.5208,33.1492C24.649,33.403,24.7679,33.6451,24.8749,33.872C24.8791,33.8819,24.884,33.8922,24.8879,33.899C24.9889,34.1141,25.076,34.3112,25.154,34.4971C25.1639,34.5201,25.1749,34.5462,25.1851,34.5691C25.2522,34.7329,25.303,34.8778,25.3471,35.0102C25.3559,35.039,25.369,35.0732,25.3771,35.1002C25.4209,35.2478,25.4491,35.3792,25.4551,35.4809C25.4569,35.5529,25.4389,35.633,25.4322,35.71L25.4322,35.71C25.315,36.9252,23.8711,38.5751,23.3431,39.1399C23.2259,39.2668,23.2001,39.4212,23.2732,39.5499C23.3452,39.6768,23.4659,39.8839,23.4659,39.8839C23.4659,39.8839,23.4592,39.892,23.4571,39.8942C23.4549,39.8902,23.4521,39.8879,23.45,39.8839C23.45,39.8839,22.5779,40.7961,22.3989,40.9658C22.2231,41.1341,22.1271,41.3979,22.2891,41.6202C23.5859,43.4092,25.382,44.1752,27.138,44.276C27.7221,44.3089,28.302,44.272,28.8579,44.172C33.2539,43.3948,33.993,39.8479,33.993,39.8479C33.993,39.8479,34.0519,39.8069,34.2849,39.5751C34.539,39.319,34.5799,39.0112,34.575,38.8739C34.5619,38.513,34.5291,38.1169,34.4779,37.6889Z"/>
</svg>