<svg version="1.2" baseProfile="tiny" viewBox="0 0 18.000 15.000" xmlns:xlink="http://www.w3.org/1999/xlink" xmlns="http://www.w3.org/2000/svg">
<path style="fill:#ffffff;" d="M2.404,0v3.651C2.444,3.6,2.494,3.55,2.535,3.509C3.852,2.181,5.603,1.45,7.465,1.45   c1.861,0,3.612,0.73,4.929,2.059c0.262,0.263,0.494,0.538,0.695,0.832V0H2.404z M1.8,0C1.8,0,0,0.101,0,5.143   c0,1.743,0.221,2.9,0.502,3.661C0.492,8.692,0.492,8.59,0.492,8.479c0-1.491,0.463-2.91,1.308-4.087V0z M15.494,4.432   C15.333,0.101,13.713,0,13.713,0v5.364c0.473,0.955,0.725,2.019,0.725,3.114c0,0.507-0.05,1.005-0.161,1.481   c0.493-0.426,1.117-1.501,1.218-4.118H18v-1.41H15.494z M9.839,4.441l-5.785,5.832H3.168C2.454,8.56,2.816,6.521,4.174,5.152   C5.05,4.269,6.217,3.783,7.465,3.783C8.3,3.783,9.125,4.016,9.839,4.441z M11.469,6.086l-4.155,4.188h4.458   C12.325,8.935,12.234,7.373,11.469,6.086z M6.167,11.431L5.09,12.516c0.141,0.081,0.292,0.163,0.443,0.234h3.874   c0.503-0.225,0.957-0.539,1.358-0.945c0.121-0.121,0.231-0.241,0.332-0.374H6.167z M13.713,10.081   c-0.16,0.699-0.463,1.379-0.865,1.999c-0.151,0.231-0.322,0.456-0.513,0.67c-0.091,0.12-0.192,0.222-0.302,0.334   C10.775,14.362,9.125,15,7.465,15c-1.651,0-3.311-0.638-4.568-1.916c-0.111-0.112-0.211-0.214-0.302-0.334   c-0.131-0.153-0.262-0.315-0.372-0.478c-0.524-0.722-0.866-1.521-1.046-2.354C0.824,8.388,1.025,6.765,1.8,5.354   c0.161-0.325,0.362-0.628,0.604-0.923c0.141-0.192,0.312-0.385,0.493-0.568c1.258-1.269,2.917-1.906,4.568-1.906   c1.66,0,3.31,0.638,4.568,1.906c0.433,0.438,0.784,0.913,1.057,1.42c0.291,0.497,0.493,1.024,0.623,1.573   C13.994,7.91,13.994,9.027,13.713,10.081z M4.768,10.273l5.856-5.913c-0.925-0.72-2.042-1.084-3.159-1.084   c-1.329,0-2.647,0.507-3.653,1.521C3.068,5.547,2.595,6.47,2.404,7.444c-0.13,0.67-0.13,1.359,0,2.028   c0.05,0.273,0.121,0.537,0.221,0.801c0.151,0.416,0.353,0.813,0.614,1.177c0.04,0.071,0.1,0.143,0.15,0.214L4.768,10.273z    M11.54,5.293l-4.931,4.98l-2.304,2.323c0.071,0.05,0.142,0.102,0.211,0.153c0.885,0.618,1.922,0.933,2.958,0.933   s2.063-0.314,2.948-0.933c0.241-0.173,0.473-0.367,0.694-0.589c0.231-0.233,0.433-0.478,0.604-0.73   c0.252-0.365,0.443-0.751,0.584-1.157C12.908,8.621,12.656,6.733,11.54,5.293z"/>
</svg>