<svg version="1.2" baseProfile="tiny" viewBox="0 0 220.0 226.0" xmlns:xlink="http://www.w3.org/1999/xlink" xmlns="http://www.w3.org/2000/svg">
<path style="fill:#ffffff;" d="M110.0,224.4971C64.6932,224.4971,27.8344,187.5212,27.8344,142.0749C27.8344,141.354,27.8586,140.6375,27.885,139.9256L27.9356,138.3369L10.582,130.8291C7.799,129.7963,1.4982,126.951,1.4982,122.1869L1.4982,10.0208C1.4982,5.3246,5.3064,1.5029,9.988,1.5029L210.0098,1.5029L210.0098,1.5029C214.6914,1.5029,218.5018,5.3246,218.5018,10.0208L218.5018,122.1869C218.5018,126.725,214.3966,128.7816,209.44,130.8178L192.071,138.5651L192.1238,140.2421C192.1436,140.85,192.1656,141.4579,192.1656,142.0749C192.1656,187.5212,155.3046,224.4971,110.0,224.4971Z"/>
</svg>